<svg width="429" height="98" viewBox="0 0 429 98" fill="none" xmlns="http://www.w3.org/2000/svg">
<path d="M0.340909 95H-4.65909V100H0.340909V95ZM0.340909 1.90909V-3.09091H-4.65909V1.90909H0.340909ZM20.0227 1.90909H25.0227V-3.09091H20.0227V1.90909ZM20.0227 40.3182H15.0227V45.3182H20.0227V40.3182ZM59.9773 40.3182V45.3182H64.9773V40.3182H59.9773ZM59.9773 1.90909V-3.09091H54.9773V1.90909H59.9773ZM79.6136 1.90909H84.6136V-3.09091H79.6136V1.90909ZM79.6136 95V100H84.6136V95H79.6136ZM59.9773 95H54.9773V100H59.9773V95ZM59.9773 56.5455H64.9773V51.5455H59.9773V56.5455ZM20.0227 56.5455V51.5455H15.0227V56.5455H20.0227ZM20.0227 95V100H25.0227V95H20.0227ZM5.34091 95V1.90909H-4.65909V95H5.34091ZM0.340909 6.90909H20.0227V-3.09091H0.340909V6.90909ZM15.0227 1.90909V40.3182H25.0227V1.90909H15.0227ZM20.0227 45.3182H59.9773V35.3182H20.0227V45.3182ZM64.9773 40.3182V1.90909H54.9773V40.3182H64.9773ZM59.9773 6.90909H79.6136V-3.09091H59.9773V6.90909ZM74.6136 1.90909V95H84.6136V1.90909H74.6136ZM79.6136 90H59.9773V100H79.6136V90ZM64.9773 95V56.5455H54.9773V95H64.9773ZM59.9773 51.5455H20.0227V61.5455H59.9773V51.5455ZM15.0227 56.5455V95H25.0227V56.5455H15.0227ZM20.0227 90H0.340909V100H20.0227V90Z" fill="#FFF8F8"/>
<path d="M104.903 95H99.9034V100H104.903V95ZM104.903 1.90909V-3.09091H99.9034V1.90909H104.903ZM167.631 1.90909H172.631V-3.09091H167.631V1.90909ZM167.631 18.1364V23.1364H172.631V18.1364H167.631ZM124.585 18.1364V13.1364H119.585V18.1364H124.585ZM124.585 40.3182H119.585V45.3182H124.585V40.3182ZM164.403 40.3182H169.403V35.3182H164.403V40.3182ZM164.403 56.5455V61.5455H169.403V56.5455H164.403ZM124.585 56.5455V51.5455H119.585V56.5455H124.585ZM124.585 78.7727H119.585V83.7727H124.585V78.7727ZM167.812 78.7727H172.812V73.7727H167.812V78.7727ZM167.812 95V100H172.812V95H167.812ZM109.903 95V1.90909H99.9034V95H109.903ZM104.903 6.90909H167.631V-3.09091H104.903V6.90909ZM162.631 1.90909V18.1364H172.631V1.90909H162.631ZM167.631 13.1364H124.585V23.1364H167.631V13.1364ZM119.585 18.1364V40.3182H129.585V18.1364H119.585ZM124.585 45.3182H164.403V35.3182H124.585V45.3182ZM159.403 40.3182V56.5455H169.403V40.3182H159.403ZM164.403 51.5455H124.585V61.5455H164.403V51.5455ZM119.585 56.5455V78.7727H129.585V56.5455H119.585ZM124.585 83.7727H167.812V73.7727H124.585V83.7727ZM162.812 78.7727V95H172.812V78.7727H162.812ZM167.812 90H104.903V100H167.812V90Z" fill="#FFF8F8"/>
<path d="M390.983 97.0455L390.964 102.045L390.973 102.045H390.983V97.0455ZM370.801 91.2727L367.987 95.4053L367.997 95.4123L370.801 91.2727ZM357.847 74.6818L353.227 76.5953L353.231 76.6035L353.234 76.6117L357.847 74.6818ZM353.392 48.5455L358.392 48.5603L358.392 48.5529V48.5455H353.392ZM357.892 22.5909L353.288 20.6402L353.285 20.6484L353.281 20.6567L357.892 22.5909ZM370.847 6.27273L373.615 10.4364L373.62 10.433L370.847 6.27273ZM411.074 6.27273L408.29 10.4261L408.3 10.433L411.074 6.27273ZM424.074 22.6364L419.47 24.5871L419.473 24.5941L424.074 22.6364ZM428.574 48.5455L423.574 48.5305L423.574 48.538V48.5455H428.574ZM424.028 74.7273L419.416 72.7973L419.412 72.8056L419.409 72.8138L424.028 74.7273ZM411.119 91.3182L413.934 95.4507L413.934 95.4507L411.119 91.3182ZM403.756 72.6818L408.056 75.2328L408.056 75.2328L403.756 72.6818ZM408.483 48.5455L403.483 48.5455L403.483 48.5596L408.483 48.5455ZM406.301 30.9091L401.516 32.36L401.521 32.3741L401.525 32.3882L406.301 30.9091ZM400.21 20.3182L396.851 24.0218L396.862 24.0314L396.873 24.041L400.21 20.3182ZM378.256 24.7273L373.968 22.1548L373.968 22.1548L378.256 24.7273ZM373.438 48.5455L368.438 48.5311L368.438 48.5383V48.5455H373.438ZM375.574 66.4545L370.781 67.8801L370.787 67.8983L370.792 67.9164L375.574 66.4545ZM381.71 77.1818L378.349 80.8834L378.361 80.8941L378.373 80.9047L381.71 77.1818ZM391.002 92.0455C384.026 92.0185 378.302 90.3149 373.605 87.1331L367.997 95.4123C374.573 99.8669 382.304 102.012 390.964 102.045L391.002 92.0455ZM373.616 87.1402C368.929 83.9484 365.176 79.2455 362.459 72.7519L353.234 76.6117C356.578 84.603 361.461 90.9607 367.987 95.4053L373.616 87.1402ZM362.466 72.7684C359.783 66.2902 358.363 58.2692 358.392 48.5603L348.392 48.5306C348.36 59.1854 349.911 68.5886 353.227 76.5953L362.466 72.7684ZM358.392 48.5455C358.392 38.8628 359.826 30.9066 362.503 24.5251L353.281 20.6567C349.958 28.5782 348.392 37.9251 348.392 48.5455H358.392ZM362.496 24.5416C365.204 18.1494 368.944 13.542 373.615 10.4364L368.078 2.10902C361.537 6.45795 356.64 12.7294 353.288 20.6402L362.496 24.5416ZM373.62 10.433C378.317 7.30155 384.03 5.63636 390.983 5.63636V-4.36364C382.36 -4.36364 374.649 -2.27125 368.073 2.11248L373.62 10.433ZM390.983 5.63636C397.936 5.63636 403.629 7.30175 408.29 10.4261L413.858 2.1194C407.307 -2.27145 399.605 -4.36364 390.983 -4.36364V5.63636ZM408.3 10.433C413.01 13.5724 416.764 18.1996 419.47 24.5871L428.678 20.6856C425.324 12.7701 420.411 6.48818 413.847 2.11248L408.3 10.433ZM419.473 24.5941C422.169 30.9299 423.603 38.8556 423.574 48.5305L433.574 48.5604C433.606 37.9322 432.039 28.5853 428.675 20.6786L419.473 24.5941ZM423.574 48.5455C423.574 58.285 422.126 66.32 419.416 72.7973L428.641 76.6572C431.991 68.6497 433.574 59.2301 433.574 48.5455H423.574ZM419.409 72.8138C416.722 79.3002 412.986 83.997 408.305 87.1856L413.934 95.4507C420.464 91.003 425.335 84.6392 428.648 76.6407L419.409 72.8138ZM408.305 87.1856C403.65 90.3559 397.955 92.0455 390.983 92.0455V102.045C399.647 102.045 407.377 99.9169 413.934 95.4507L408.305 87.1856ZM390.983 85.7273C398.409 85.7273 404.154 81.8102 408.056 75.2328L399.455 70.1308C396.994 74.2807 394.224 75.7273 390.983 75.7273V85.7273ZM408.056 75.2328C411.921 68.7171 413.514 59.5909 413.483 48.5313L403.483 48.5596C403.512 58.9545 401.954 65.9193 399.455 70.1308L408.056 75.2328ZM413.483 48.5455C413.483 41.1822 412.729 34.7647 411.077 29.43L401.525 32.3882C402.782 36.4474 403.483 41.7875 403.483 48.5455H413.483ZM411.086 29.4582C409.494 24.2096 407.08 19.7617 403.548 16.5953L396.873 24.041C398.613 25.6019 400.259 28.2146 401.516 32.36L411.086 29.4582ZM403.569 16.6146C400.036 13.4096 395.76 11.7727 390.983 11.7727V21.7727C393.297 21.7727 395.173 22.4995 396.851 24.0218L403.569 16.6146ZM390.983 11.7727C383.604 11.7727 377.876 15.6418 373.968 22.1548L382.543 27.2998C384.999 23.2067 387.756 21.7727 390.983 21.7727V11.7727ZM373.968 22.1548C370.1 28.6017 368.469 37.6169 368.438 48.5311L378.437 48.5598C378.467 38.3225 380.048 31.4589 382.543 27.2998L373.968 22.1548ZM368.438 48.5455C368.438 55.9902 369.174 62.4776 370.781 67.8801L380.366 65.0289C379.125 60.8558 378.438 55.4037 378.438 48.5455H368.438ZM370.792 67.9164C372.41 73.209 374.833 77.6903 378.349 80.8834L385.071 73.4802C383.315 71.8854 381.646 69.2153 380.355 64.9927L370.792 67.9164ZM378.373 80.9047C381.927 84.0919 386.207 85.7273 390.983 85.7273V75.7273C388.668 75.7273 386.766 74.999 385.048 73.459L378.373 80.9047Z" fill="#FFF8F8"/>
<path d="M279.778 95H274.778V100H279.778V95ZM279.778 1.90909V-3.09091H274.778V1.90909H279.778ZM299.46 1.90909H304.46V-3.09091H299.46V1.90909ZM299.46 78.7727H294.46V83.7727H299.46V78.7727ZM339.369 78.7727H344.369V73.7727H339.369V78.7727ZM339.369 95V100H344.369V95H339.369ZM284.778 95V1.90909H274.778V95H284.778ZM279.778 6.90909H299.46V-3.09091H279.778V6.90909ZM294.46 1.90909V78.7727H304.46V1.90909H294.46ZM299.46 83.7727H339.369V73.7727H299.46V83.7727ZM334.369 78.7727V95H344.369V78.7727H334.369ZM339.369 90H279.778V100H339.369V90Z" fill="#FFF8F8"/>
<path d="M196.778 95H191.778V100H196.778V95ZM196.778 1.90909V-3.09091H191.778V1.90909H196.778ZM216.46 1.90909H221.46V-3.09091H216.46V1.90909ZM216.46 78.7727H211.46V83.7727H216.46V78.7727ZM256.369 78.7727H261.369V73.7727H256.369V78.7727ZM256.369 95V100H261.369V95H256.369ZM201.778 95V1.90909H191.778V95H201.778ZM196.778 6.90909H216.46V-3.09091H196.778V6.90909ZM211.46 1.90909V78.7727H221.46V1.90909H211.46ZM216.46 83.7727H256.369V73.7727H216.46V83.7727ZM251.369 78.7727V95H261.369V78.7727H251.369ZM256.369 90H196.778V100H256.369V90Z" fill="#FFF8F8"/>
</svg>